<svg width="78" height="70" viewBox="0 0 78 70" fill="none" xmlns="http://www.w3.org/2000/svg">
<path d="M0 0V7.77778H3.89926V70H15.6385V46.7289C15.6385 33.8489 26.0918 23.3956 38.9718 23.3956C51.8518 23.3956 62.3052 33.8489 62.3052 46.7289V69.9793H73.8993V7.75704H77.7985V0H0Z" fill="#A61103"/>
<path d="M47.5792 69.917C49.4044 67.8429 50.5452 65.1467 50.5452 62.1807C50.5244 55.7304 38.8059 42.7881 38.8059 42.7881C38.8059 42.7881 27.1911 55.8341 27.2118 62.2844C27.2326 65.2711 28.3733 67.9466 30.2192 70C33.6622 64.1926 38.8474 58.3437 38.8474 58.3437C38.8474 58.3437 44.0948 64.1304 47.5792 69.917Z" fill="#A61103"/>
</svg>
